<svg viewBox="0 0 1024 1024" xmlns="http://www.w3.org/2000/svg">
  <!-- Gear ring with transparent circular opening -->
  <path fill="#147c7e" fill-rule="evenodd" d="M 410.1 205.6 L 448.0 195.4 L 462.4 133.3 L 561.6 133.3 L 576.0 195.4 L 613.9 205.6 L 657.4 158.9 L 743.3 208.5 L 724.7 269.6 L 752.4 297.3 L 813.5 278.7 L 863.1 364.6 L 816.4 408.1 L 826.6 446.0 L 888.7 460.4 L 888.7 559.6 L 826.6 574.0 L 816.4 611.9 L 863.1 655.4 L 813.5 741.3 L 752.4 722.7 L 724.7 750.4 L 743.3 811.5 L 657.4 861.1 L 613.9 814.4 L 576.0 824.6 L 561.6 886.7 L 462.4 886.7 L 448.0 824.6 L 410.1 814.4 L 366.6 861.1 L 280.7 811.5 L 299.3 750.4 L 271.6 722.7 L 210.5 741.3 L 160.9 655.4 L 207.6 611.9 L 197.4 574.0 L 135.3 559.6 L 135.3 460.4 L 197.4 446.0 L 207.6 408.1 L 160.9 364.6 L 210.5 278.7 L 271.6 297.3 L 299.3 269.6 L 280.7 208.5 L 366.6 158.9 L 410.1 205.6 Z M 512 510 m -189 0 a 189 189 0 1 0 378 0 a 189 189 0 1 0 -378 0 Z"/>

  <!-- Key (teal) sits in the opening -->
  <path fill="#147c7e" fill-rule="evenodd" d="
    M 451 377 a 14 14 0 0 1 14 -14 h 93 a 14 14 0 0 1 14 14 v 79 a 14 14 0 0 1 -14 14 h -93 a 14 14 0 0 1 -14 -14 Z
    M 481 400 a 7 7 0 0 1 7 -7 h 47 a 7 7 0 0 1 7 7 v 41 a 7 7 0 0 1 -7 7 h -47 a 7 7 0 0 1 -7 -7 Z"/>
  <path fill="#147c7e" d="
    M 495 466 L 528 466
    L 528 566 L 568 566 L 568 586 L 544 586 L 544 596
    L 560 596 L 560 616 L 544 616 L 544 626
    L 570 626 L 570 648 L 528 648 L 528 662
    L 495 662 Z"/>
</svg>